<svg xmlns="http://www.w3.org/2000/svg" xmlns:xlink="http://www.w3.org/1999/xlink" width="1920" zoomAndPan="magnify" viewBox="0 0 1440 809.999993" height="1080" preserveAspectRatio="xMidYMid meet" version="1.0"><defs><clipPath id="9ea675ab5d"><path d="M 599 211 L 719 211 L 719 345 L 599 345 Z M 599 211 " clip-rule="nonzero"/></clipPath><clipPath id="bf4fea583c"><path d="M 619.8125 195.394531 L 738.039062 245.101562 L 690.949219 357.105469 L 572.722656 307.398438 Z M 619.8125 195.394531 " clip-rule="nonzero"/></clipPath><clipPath id="e5349dfd6a"><path d="M 619.8125 195.394531 L 738.039062 245.101562 L 690.949219 357.105469 L 572.722656 307.398438 Z M 619.8125 195.394531 " clip-rule="nonzero"/></clipPath><clipPath id="a9306511cf"><path d="M 619.8125 195.394531 L 738.039062 245.101562 L 690.949219 357.105469 L 572.722656 307.398438 Z M 619.8125 195.394531 " clip-rule="nonzero"/></clipPath><clipPath id="a76c1993f9"><path d="M 584.136719 282.738281 L 813.261719 282.738281 L 813.261719 511.863281 L 584.136719 511.863281 Z M 584.136719 282.738281 " clip-rule="nonzero"/></clipPath><clipPath id="dbef042ed7"><path d="M 698.699219 282.738281 C 635.429688 282.738281 584.136719 334.03125 584.136719 397.300781 C 584.136719 460.574219 635.429688 511.863281 698.699219 511.863281 C 761.972656 511.863281 813.261719 460.574219 813.261719 397.300781 C 813.261719 334.03125 761.972656 282.738281 698.699219 282.738281 Z M 698.699219 282.738281 " clip-rule="nonzero"/></clipPath><clipPath id="dd729e8af8"><path d="M 482.550781 488 L 554 488 L 554 518 L 482.550781 518 Z M 482.550781 488 " clip-rule="nonzero"/></clipPath><clipPath id="4c67d86e51"><path d="M 483 506 L 535 506 L 535 557.957031 L 483 557.957031 Z M 483 506 " clip-rule="nonzero"/></clipPath><clipPath id="5dd74fd1e6"><path d="M 779 407 L 911 407 L 911 514 L 779 514 Z M 779 407 " clip-rule="nonzero"/></clipPath><clipPath id="a737669729"><path d="M 827.167969 349.289062 L 957.777344 453.761719 L 829.410156 614.238281 L 698.804688 509.765625 Z M 827.167969 349.289062 " clip-rule="nonzero"/></clipPath><clipPath id="cbae35a750"><path d="M 827.167969 349.289062 L 957.777344 453.761719 L 829.410156 614.238281 L 698.804688 509.765625 Z M 827.167969 349.289062 " clip-rule="nonzero"/></clipPath><clipPath id="84de798162"><path d="M 827.167969 349.289062 L 957.777344 453.761719 L 829.410156 614.238281 L 698.804688 509.765625 Z M 827.167969 349.289062 " clip-rule="nonzero"/></clipPath><clipPath id="bc2a259536"><path d="M 780.730469 407.410156 L 911.371094 511.90625 L 909.574219 514.152344 L 778.933594 409.65625 Z M 780.730469 407.410156 " clip-rule="nonzero"/></clipPath><clipPath id="20a979e9e1"><path d="M 780.730469 407.410156 L 911.320312 511.867188 L 909.523438 514.113281 L 778.933594 409.65625 Z M 780.730469 407.410156 " clip-rule="nonzero"/></clipPath><clipPath id="60496839b8"><path d="M 860 473 L 871 473 L 871 484 L 860 484 Z M 860 473 " clip-rule="nonzero"/></clipPath><clipPath id="e417b73609"><path d="M 827.167969 349.289062 L 957.777344 453.761719 L 829.410156 614.238281 L 698.804688 509.765625 Z M 827.167969 349.289062 " clip-rule="nonzero"/></clipPath><clipPath id="0adf0f497c"><path d="M 827.167969 349.289062 L 957.777344 453.761719 L 829.410156 614.238281 L 698.804688 509.765625 Z M 827.167969 349.289062 " clip-rule="nonzero"/></clipPath><clipPath id="664387eb73"><path d="M 827.167969 349.289062 L 957.777344 453.761719 L 829.410156 614.238281 L 698.804688 509.765625 Z M 827.167969 349.289062 " clip-rule="nonzero"/></clipPath><clipPath id="9c9ac8f09d"><path d="M 762 400 L 894 400 L 894 563 L 762 563 Z M 762 400 " clip-rule="nonzero"/></clipPath><clipPath id="d4dd490014"><path d="M 827.167969 349.289062 L 957.777344 453.761719 L 829.410156 614.238281 L 698.804688 509.765625 Z M 827.167969 349.289062 " clip-rule="nonzero"/></clipPath><clipPath id="7eea9f1c96"><path d="M 827.167969 349.289062 L 957.777344 453.761719 L 829.410156 614.238281 L 698.804688 509.765625 Z M 827.167969 349.289062 " clip-rule="nonzero"/></clipPath><clipPath id="9f5b6ee6af"><path d="M 827.167969 349.289062 L 957.777344 453.761719 L 829.410156 614.238281 L 698.804688 509.765625 Z M 827.167969 349.289062 " clip-rule="nonzero"/></clipPath><clipPath id="9afda67ca3"><path d="M 826 463 L 845 463 L 845 479 L 826 479 Z M 826 463 " clip-rule="nonzero"/></clipPath><clipPath id="6cd16111f4"><path d="M 827.167969 349.289062 L 957.777344 453.761719 L 829.410156 614.238281 L 698.804688 509.765625 Z M 827.167969 349.289062 " clip-rule="nonzero"/></clipPath><clipPath id="59b785700b"><path d="M 827.167969 349.289062 L 957.777344 453.761719 L 829.410156 614.238281 L 698.804688 509.765625 Z M 827.167969 349.289062 " clip-rule="nonzero"/></clipPath><clipPath id="14ffa170c7"><path d="M 827.167969 349.289062 L 957.777344 453.761719 L 829.410156 614.238281 L 698.804688 509.765625 Z M 827.167969 349.289062 " clip-rule="nonzero"/></clipPath><clipPath id="868177b3c1"><path d="M 797 512 L 805 512 L 805 521 L 797 521 Z M 797 512 " clip-rule="nonzero"/></clipPath><clipPath id="f60b73475e"><path d="M 827.167969 349.289062 L 957.777344 453.761719 L 829.410156 614.238281 L 698.804688 509.765625 Z M 827.167969 349.289062 " clip-rule="nonzero"/></clipPath><clipPath id="8fec0324e7"><path d="M 827.167969 349.289062 L 957.777344 453.761719 L 829.410156 614.238281 L 698.804688 509.765625 Z M 827.167969 349.289062 " clip-rule="nonzero"/></clipPath><clipPath id="4484b85258"><path d="M 827.167969 349.289062 L 957.777344 453.761719 L 829.410156 614.238281 L 698.804688 509.765625 Z M 827.167969 349.289062 " clip-rule="nonzero"/></clipPath><clipPath id="c1596b6657"><path d="M 822 441 L 826 441 L 826 444 L 822 444 Z M 822 441 " clip-rule="nonzero"/></clipPath><clipPath id="bb79135622"><path d="M 827.167969 349.289062 L 957.777344 453.761719 L 829.410156 614.238281 L 698.804688 509.765625 Z M 827.167969 349.289062 " clip-rule="nonzero"/></clipPath><clipPath id="de1d3b16e5"><path d="M 827.167969 349.289062 L 957.777344 453.761719 L 829.410156 614.238281 L 698.804688 509.765625 Z M 827.167969 349.289062 " clip-rule="nonzero"/></clipPath><clipPath id="9f184ca7b0"><path d="M 827.167969 349.289062 L 957.777344 453.761719 L 829.410156 614.238281 L 698.804688 509.765625 Z M 827.167969 349.289062 " clip-rule="nonzero"/></clipPath><clipPath id="4275424399"><path d="M 821 439 L 824 439 L 824 442 L 821 442 Z M 821 439 " clip-rule="nonzero"/></clipPath><clipPath id="a8d9db3619"><path d="M 827.167969 349.289062 L 957.777344 453.761719 L 829.410156 614.238281 L 698.804688 509.765625 Z M 827.167969 349.289062 " clip-rule="nonzero"/></clipPath><clipPath id="432dc3a190"><path d="M 827.167969 349.289062 L 957.777344 453.761719 L 829.410156 614.238281 L 698.804688 509.765625 Z M 827.167969 349.289062 " clip-rule="nonzero"/></clipPath><clipPath id="f54385b8fd"><path d="M 827.167969 349.289062 L 957.777344 453.761719 L 829.410156 614.238281 L 698.804688 509.765625 Z M 827.167969 349.289062 " clip-rule="nonzero"/></clipPath><clipPath id="dd8c602fe8"><path d="M 817 439 L 826 439 L 826 450 L 817 450 Z M 817 439 " clip-rule="nonzero"/></clipPath><clipPath id="9aad882177"><path d="M 827.167969 349.289062 L 957.777344 453.761719 L 829.410156 614.238281 L 698.804688 509.765625 Z M 827.167969 349.289062 " clip-rule="nonzero"/></clipPath><clipPath id="12127bed57"><path d="M 827.167969 349.289062 L 957.777344 453.761719 L 829.410156 614.238281 L 698.804688 509.765625 Z M 827.167969 349.289062 " clip-rule="nonzero"/></clipPath><clipPath id="9180f5d40d"><path d="M 827.167969 349.289062 L 957.777344 453.761719 L 829.410156 614.238281 L 698.804688 509.765625 Z M 827.167969 349.289062 " clip-rule="nonzero"/></clipPath><clipPath id="3614adf01c"><path d="M 826 443 L 828 443 L 828 445 L 826 445 Z M 826 443 " clip-rule="nonzero"/></clipPath><clipPath id="0e1ba27d6c"><path d="M 827.167969 349.289062 L 957.777344 453.761719 L 829.410156 614.238281 L 698.804688 509.765625 Z M 827.167969 349.289062 " clip-rule="nonzero"/></clipPath><clipPath id="d6cab1c539"><path d="M 827.167969 349.289062 L 957.777344 453.761719 L 829.410156 614.238281 L 698.804688 509.765625 Z M 827.167969 349.289062 " clip-rule="nonzero"/></clipPath><clipPath id="62ce67c49b"><path d="M 827.167969 349.289062 L 957.777344 453.761719 L 829.410156 614.238281 L 698.804688 509.765625 Z M 827.167969 349.289062 " clip-rule="nonzero"/></clipPath><clipPath id="59fdd27840"><path d="M 824 442 L 827 442 L 827 445 L 824 445 Z M 824 442 " clip-rule="nonzero"/></clipPath><clipPath id="66faafc2a0"><path d="M 827.167969 349.289062 L 957.777344 453.761719 L 829.410156 614.238281 L 698.804688 509.765625 Z M 827.167969 349.289062 " clip-rule="nonzero"/></clipPath><clipPath id="46eddbb272"><path d="M 827.167969 349.289062 L 957.777344 453.761719 L 829.410156 614.238281 L 698.804688 509.765625 Z M 827.167969 349.289062 " clip-rule="nonzero"/></clipPath><clipPath id="764728ebfa"><path d="M 827.167969 349.289062 L 957.777344 453.761719 L 829.410156 614.238281 L 698.804688 509.765625 Z M 827.167969 349.289062 " clip-rule="nonzero"/></clipPath><clipPath id="b8605be841"><path d="M 810 496 L 815 496 L 815 502 L 810 502 Z M 810 496 " clip-rule="nonzero"/></clipPath><clipPath id="f6794e4816"><path d="M 827.167969 349.289062 L 957.777344 453.761719 L 829.410156 614.238281 L 698.804688 509.765625 Z M 827.167969 349.289062 " clip-rule="nonzero"/></clipPath><clipPath id="2fdfd52312"><path d="M 827.167969 349.289062 L 957.777344 453.761719 L 829.410156 614.238281 L 698.804688 509.765625 Z M 827.167969 349.289062 " clip-rule="nonzero"/></clipPath><clipPath id="ec5025ca73"><path d="M 827.167969 349.289062 L 957.777344 453.761719 L 829.410156 614.238281 L 698.804688 509.765625 Z M 827.167969 349.289062 " clip-rule="nonzero"/></clipPath><clipPath id="b1bd50de61"><path d="M 809 484 L 818 484 L 818 500 L 809 500 Z M 809 484 " clip-rule="nonzero"/></clipPath><clipPath id="baee83ce08"><path d="M 827.167969 349.289062 L 957.777344 453.761719 L 829.410156 614.238281 L 698.804688 509.765625 Z M 827.167969 349.289062 " clip-rule="nonzero"/></clipPath><clipPath id="e77119699b"><path d="M 827.167969 349.289062 L 957.777344 453.761719 L 829.410156 614.238281 L 698.804688 509.765625 Z M 827.167969 349.289062 " clip-rule="nonzero"/></clipPath><clipPath id="6418cab362"><path d="M 827.167969 349.289062 L 957.777344 453.761719 L 829.410156 614.238281 L 698.804688 509.765625 Z M 827.167969 349.289062 " clip-rule="nonzero"/></clipPath><clipPath id="e41e95dfaa"><path d="M 799 492 L 833 492 L 833 520 L 799 520 Z M 799 492 " clip-rule="nonzero"/></clipPath><clipPath id="faf09292bb"><path d="M 827.167969 349.289062 L 957.777344 453.761719 L 829.410156 614.238281 L 698.804688 509.765625 Z M 827.167969 349.289062 " clip-rule="nonzero"/></clipPath><clipPath id="b2bba2ed3e"><path d="M 827.167969 349.289062 L 957.777344 453.761719 L 829.410156 614.238281 L 698.804688 509.765625 Z M 827.167969 349.289062 " clip-rule="nonzero"/></clipPath><clipPath id="3755ad163c"><path d="M 827.167969 349.289062 L 957.777344 453.761719 L 829.410156 614.238281 L 698.804688 509.765625 Z M 827.167969 349.289062 " clip-rule="nonzero"/></clipPath><clipPath id="fa7ec905b6"><path d="M 808 448 L 863 448 L 863 501 L 808 501 Z M 808 448 " clip-rule="nonzero"/></clipPath><clipPath id="a6bf681618"><path d="M 827.167969 349.289062 L 957.777344 453.761719 L 829.410156 614.238281 L 698.804688 509.765625 Z M 827.167969 349.289062 " clip-rule="nonzero"/></clipPath><clipPath id="5a4ed6119a"><path d="M 827.167969 349.289062 L 957.777344 453.761719 L 829.410156 614.238281 L 698.804688 509.765625 Z M 827.167969 349.289062 " clip-rule="nonzero"/></clipPath><clipPath id="17cc6278b2"><path d="M 827.167969 349.289062 L 957.777344 453.761719 L 829.410156 614.238281 L 698.804688 509.765625 Z M 827.167969 349.289062 " clip-rule="nonzero"/></clipPath><clipPath id="2ca795d4ab"><path d="M 834 452 L 853 452 L 853 473 L 834 473 Z M 834 452 " clip-rule="nonzero"/></clipPath><clipPath id="a5b4b437f4"><path d="M 827.167969 349.289062 L 957.777344 453.761719 L 829.410156 614.238281 L 698.804688 509.765625 Z M 827.167969 349.289062 " clip-rule="nonzero"/></clipPath><clipPath id="e3a4745be8"><path d="M 827.167969 349.289062 L 957.777344 453.761719 L 829.410156 614.238281 L 698.804688 509.765625 Z M 827.167969 349.289062 " clip-rule="nonzero"/></clipPath><clipPath id="c14edf2a94"><path d="M 827.167969 349.289062 L 957.777344 453.761719 L 829.410156 614.238281 L 698.804688 509.765625 Z M 827.167969 349.289062 " clip-rule="nonzero"/></clipPath><clipPath id="9b59728ba1"><path d="M 820 442 L 868 442 L 868 481 L 820 481 Z M 820 442 " clip-rule="nonzero"/></clipPath><clipPath id="a4bc2cc6ba"><path d="M 827.167969 349.289062 L 957.777344 453.761719 L 829.410156 614.238281 L 698.804688 509.765625 Z M 827.167969 349.289062 " clip-rule="nonzero"/></clipPath><clipPath id="86a564a241"><path d="M 827.167969 349.289062 L 957.777344 453.761719 L 829.410156 614.238281 L 698.804688 509.765625 Z M 827.167969 349.289062 " clip-rule="nonzero"/></clipPath><clipPath id="e2144fa7b5"><path d="M 827.167969 349.289062 L 957.777344 453.761719 L 829.410156 614.238281 L 698.804688 509.765625 Z M 827.167969 349.289062 " clip-rule="nonzero"/></clipPath><clipPath id="56f4e8b00d"><path d="M 779 407 L 822 407 L 822 442 L 779 442 Z M 779 407 " clip-rule="nonzero"/></clipPath><clipPath id="1e6bdb1fc6"><path d="M 827.167969 349.289062 L 957.777344 453.761719 L 829.410156 614.238281 L 698.804688 509.765625 Z M 827.167969 349.289062 " clip-rule="nonzero"/></clipPath><clipPath id="249c4298be"><path d="M 827.167969 349.289062 L 957.777344 453.761719 L 829.410156 614.238281 L 698.804688 509.765625 Z M 827.167969 349.289062 " clip-rule="nonzero"/></clipPath><clipPath id="bb8f120e45"><path d="M 827.167969 349.289062 L 957.777344 453.761719 L 829.410156 614.238281 L 698.804688 509.765625 Z M 827.167969 349.289062 " clip-rule="nonzero"/></clipPath><clipPath id="4db799b363"><path d="M 827 444 L 865 444 L 865 475 L 827 475 Z M 827 444 " clip-rule="nonzero"/></clipPath><clipPath id="8a8d03dc08"><path d="M 827.167969 349.289062 L 957.777344 453.761719 L 829.410156 614.238281 L 698.804688 509.765625 Z M 827.167969 349.289062 " clip-rule="nonzero"/></clipPath><clipPath id="ff6a7299db"><path d="M 827.167969 349.289062 L 957.777344 453.761719 L 829.410156 614.238281 L 698.804688 509.765625 Z M 827.167969 349.289062 " clip-rule="nonzero"/></clipPath><clipPath id="a5df558317"><path d="M 827.167969 349.289062 L 957.777344 453.761719 L 829.410156 614.238281 L 698.804688 509.765625 Z M 827.167969 349.289062 " clip-rule="nonzero"/></clipPath><clipPath id="c84d378d6e"><path d="M 868 478 L 912 478 L 912 514 L 868 514 Z M 868 478 " clip-rule="nonzero"/></clipPath><clipPath id="1bcfbe4af2"><path d="M 827.167969 349.289062 L 957.777344 453.761719 L 829.410156 614.238281 L 698.804688 509.765625 Z M 827.167969 349.289062 " clip-rule="nonzero"/></clipPath><clipPath id="f7f0c9433a"><path d="M 827.167969 349.289062 L 957.777344 453.761719 L 829.410156 614.238281 L 698.804688 509.765625 Z M 827.167969 349.289062 " clip-rule="nonzero"/></clipPath><clipPath id="fae8decae3"><path d="M 827.167969 349.289062 L 957.777344 453.761719 L 829.410156 614.238281 L 698.804688 509.765625 Z M 827.167969 349.289062 " clip-rule="nonzero"/></clipPath><clipPath id="9dfab3101f"><path d="M 870.21875 478.464844 L 911.625 511.585938 L 909.316406 514.476562 L 867.910156 481.355469 Z M 870.21875 478.464844 " clip-rule="nonzero"/></clipPath><clipPath id="77e9111440"><path d="M 870.21875 478.464844 L 911.574219 511.546875 L 909.265625 514.433594 L 867.910156 481.355469 Z M 870.21875 478.464844 " clip-rule="nonzero"/></clipPath><clipPath id="e2f8e64347"><path d="M 808 447 L 863 447 L 863 501 L 808 501 Z M 808 447 " clip-rule="nonzero"/></clipPath><clipPath id="310d49fb70"><path d="M 827.167969 349.289062 L 957.777344 453.761719 L 829.410156 614.238281 L 698.804688 509.765625 Z M 827.167969 349.289062 " clip-rule="nonzero"/></clipPath><clipPath id="fb8f1c0fd6"><path d="M 827.167969 349.289062 L 957.777344 453.761719 L 829.410156 614.238281 L 698.804688 509.765625 Z M 827.167969 349.289062 " clip-rule="nonzero"/></clipPath><clipPath id="d04ee709ec"><path d="M 827.167969 349.289062 L 957.777344 453.761719 L 829.410156 614.238281 L 698.804688 509.765625 Z M 827.167969 349.289062 " clip-rule="nonzero"/></clipPath><clipPath id="04204545e6"><path d="M 813 458 L 821 458 L 821 463 L 813 463 Z M 813 458 " clip-rule="nonzero"/></clipPath><clipPath id="5de8e2e6b6"><path d="M 827.167969 349.289062 L 957.777344 453.761719 L 829.410156 614.238281 L 698.804688 509.765625 Z M 827.167969 349.289062 " clip-rule="nonzero"/></clipPath><clipPath id="219e5386e0"><path d="M 827.167969 349.289062 L 957.777344 453.761719 L 829.410156 614.238281 L 698.804688 509.765625 Z M 827.167969 349.289062 " clip-rule="nonzero"/></clipPath><clipPath id="d7891aa6db"><path d="M 827.167969 349.289062 L 957.777344 453.761719 L 829.410156 614.238281 L 698.804688 509.765625 Z M 827.167969 349.289062 " clip-rule="nonzero"/></clipPath><clipPath id="4cf99e0556"><path d="M 850 484 L 853 484 L 853 492 L 850 492 Z M 850 484 " clip-rule="nonzero"/></clipPath><clipPath id="f0da9ff722"><path d="M 827.167969 349.289062 L 957.777344 453.761719 L 829.410156 614.238281 L 698.804688 509.765625 Z M 827.167969 349.289062 " clip-rule="nonzero"/></clipPath><clipPath id="1080a0d7ea"><path d="M 827.167969 349.289062 L 957.777344 453.761719 L 829.410156 614.238281 L 698.804688 509.765625 Z M 827.167969 349.289062 " clip-rule="nonzero"/></clipPath><clipPath id="dea3354689"><path d="M 827.167969 349.289062 L 957.777344 453.761719 L 829.410156 614.238281 L 698.804688 509.765625 Z M 827.167969 349.289062 " clip-rule="nonzero"/></clipPath><clipPath id="16adba3d7f"><path d="M 862 477 L 871 477 L 871 484 L 862 484 Z M 862 477 " clip-rule="nonzero"/></clipPath><clipPath id="2a35c633a2"><path d="M 827.167969 349.289062 L 957.777344 453.761719 L 829.410156 614.238281 L 698.804688 509.765625 Z M 827.167969 349.289062 " clip-rule="nonzero"/></clipPath><clipPath id="6cfb80d5e1"><path d="M 827.167969 349.289062 L 957.777344 453.761719 L 829.410156 614.238281 L 698.804688 509.765625 Z M 827.167969 349.289062 " clip-rule="nonzero"/></clipPath><clipPath id="c9427217d5"><path d="M 827.167969 349.289062 L 957.777344 453.761719 L 829.410156 614.238281 L 698.804688 509.765625 Z M 827.167969 349.289062 " clip-rule="nonzero"/></clipPath><clipPath id="c71d0077f0"><path d="M 860 475 L 863 475 L 863 481 L 860 481 Z M 860 475 " clip-rule="nonzero"/></clipPath><clipPath id="1e8e4b9164"><path d="M 827.167969 349.289062 L 957.777344 453.761719 L 829.410156 614.238281 L 698.804688 509.765625 Z M 827.167969 349.289062 " clip-rule="nonzero"/></clipPath><clipPath id="1f2c6ffbf4"><path d="M 827.167969 349.289062 L 957.777344 453.761719 L 829.410156 614.238281 L 698.804688 509.765625 Z M 827.167969 349.289062 " clip-rule="nonzero"/></clipPath><clipPath id="7d2863784c"><path d="M 827.167969 349.289062 L 957.777344 453.761719 L 829.410156 614.238281 L 698.804688 509.765625 Z M 827.167969 349.289062 " clip-rule="nonzero"/></clipPath><clipPath id="f579cbaab1"><path d="M 867 476 L 870 476 L 870 480 L 867 480 Z M 867 476 " clip-rule="nonzero"/></clipPath><clipPath id="b321d1c066"><path d="M 827.167969 349.289062 L 957.777344 453.761719 L 829.410156 614.238281 L 698.804688 509.765625 Z M 827.167969 349.289062 " clip-rule="nonzero"/></clipPath><clipPath id="d09ff84f5b"><path d="M 827.167969 349.289062 L 957.777344 453.761719 L 829.410156 614.238281 L 698.804688 509.765625 Z M 827.167969 349.289062 " clip-rule="nonzero"/></clipPath><clipPath id="1e9700a57c"><path d="M 827.167969 349.289062 L 957.777344 453.761719 L 829.410156 614.238281 L 698.804688 509.765625 Z M 827.167969 349.289062 " clip-rule="nonzero"/></clipPath><clipPath id="856d99dff1"><path d="M 866 475 L 869 475 L 869 479 L 866 479 Z M 866 475 " clip-rule="nonzero"/></clipPath><clipPath id="0f4fc6bf1c"><path d="M 827.167969 349.289062 L 957.777344 453.761719 L 829.410156 614.238281 L 698.804688 509.765625 Z M 827.167969 349.289062 " clip-rule="nonzero"/></clipPath><clipPath id="4863ec7d19"><path d="M 827.167969 349.289062 L 957.777344 453.761719 L 829.410156 614.238281 L 698.804688 509.765625 Z M 827.167969 349.289062 " clip-rule="nonzero"/></clipPath><clipPath id="3e9af17ee0"><path d="M 827.167969 349.289062 L 957.777344 453.761719 L 829.410156 614.238281 L 698.804688 509.765625 Z M 827.167969 349.289062 " clip-rule="nonzero"/></clipPath><clipPath id="1081f7055d"><path d="M 864 474 L 867 474 L 867 478 L 864 478 Z M 864 474 " clip-rule="nonzero"/></clipPath><clipPath id="9b1d46ec6d"><path d="M 827.167969 349.289062 L 957.777344 453.761719 L 829.410156 614.238281 L 698.804688 509.765625 Z M 827.167969 349.289062 " clip-rule="nonzero"/></clipPath><clipPath id="be5922119d"><path d="M 827.167969 349.289062 L 957.777344 453.761719 L 829.410156 614.238281 L 698.804688 509.765625 Z M 827.167969 349.289062 " clip-rule="nonzero"/></clipPath><clipPath id="b40b533571"><path d="M 827.167969 349.289062 L 957.777344 453.761719 L 829.410156 614.238281 L 698.804688 509.765625 Z M 827.167969 349.289062 " clip-rule="nonzero"/></clipPath><clipPath id="40341db3d4"><path d="M 863 473 L 866 473 L 866 476 L 863 476 Z M 863 473 " clip-rule="nonzero"/></clipPath><clipPath id="20ca01b9bb"><path d="M 827.167969 349.289062 L 957.777344 453.761719 L 829.410156 614.238281 L 698.804688 509.765625 Z M 827.167969 349.289062 " clip-rule="nonzero"/></clipPath><clipPath id="4d54d5a7b7"><path d="M 827.167969 349.289062 L 957.777344 453.761719 L 829.410156 614.238281 L 698.804688 509.765625 Z M 827.167969 349.289062 " clip-rule="nonzero"/></clipPath><clipPath id="48eb99a58a"><path d="M 827.167969 349.289062 L 957.777344 453.761719 L 829.410156 614.238281 L 698.804688 509.765625 Z M 827.167969 349.289062 " clip-rule="nonzero"/></clipPath><clipPath id="effc7dee39"><path d="M 821 446 L 826 446 L 826 450 L 821 450 Z M 821 446 " clip-rule="nonzero"/></clipPath><clipPath id="9b86f55941"><path d="M 827.167969 349.289062 L 957.777344 453.761719 L 829.410156 614.238281 L 698.804688 509.765625 Z M 827.167969 349.289062 " clip-rule="nonzero"/></clipPath><clipPath id="637e98ac05"><path d="M 827.167969 349.289062 L 957.777344 453.761719 L 829.410156 614.238281 L 698.804688 509.765625 Z M 827.167969 349.289062 " clip-rule="nonzero"/></clipPath><clipPath id="8a5d4021b8"><path d="M 827.167969 349.289062 L 957.777344 453.761719 L 829.410156 614.238281 L 698.804688 509.765625 Z M 827.167969 349.289062 " clip-rule="nonzero"/></clipPath><clipPath id="db609ce76b"><path d="M 817 439 L 823 439 L 823 449 L 817 449 Z M 817 439 " clip-rule="nonzero"/></clipPath><clipPath id="29713fb3ac"><path d="M 827.167969 349.289062 L 957.777344 453.761719 L 829.410156 614.238281 L 698.804688 509.765625 Z M 827.167969 349.289062 " clip-rule="nonzero"/></clipPath><clipPath id="085252348d"><path d="M 827.167969 349.289062 L 957.777344 453.761719 L 829.410156 614.238281 L 698.804688 509.765625 Z M 827.167969 349.289062 " clip-rule="nonzero"/></clipPath><clipPath id="1673e7dacf"><path d="M 827.167969 349.289062 L 957.777344 453.761719 L 829.410156 614.238281 L 698.804688 509.765625 Z M 827.167969 349.289062 " clip-rule="nonzero"/></clipPath><clipPath id="acf349a0e2"><path d="M 822 440 L 826 440 L 826 444 L 822 444 Z M 822 440 " clip-rule="nonzero"/></clipPath><clipPath id="12cbdb7333"><path d="M 827.167969 349.289062 L 957.777344 453.761719 L 829.410156 614.238281 L 698.804688 509.765625 Z M 827.167969 349.289062 " clip-rule="nonzero"/></clipPath><clipPath id="937ca8b639"><path d="M 827.167969 349.289062 L 957.777344 453.761719 L 829.410156 614.238281 L 698.804688 509.765625 Z M 827.167969 349.289062 " clip-rule="nonzero"/></clipPath><clipPath id="db297c351f"><path d="M 827.167969 349.289062 L 957.777344 453.761719 L 829.410156 614.238281 L 698.804688 509.765625 Z M 827.167969 349.289062 " clip-rule="nonzero"/></clipPath><clipPath id="3c0d7ccfff"><path d="M 821 439 L 824 439 L 824 443 L 821 443 Z M 821 439 " clip-rule="nonzero"/></clipPath><clipPath id="1185713b5f"><path d="M 827.167969 349.289062 L 957.777344 453.761719 L 829.410156 614.238281 L 698.804688 509.765625 Z M 827.167969 349.289062 " clip-rule="nonzero"/></clipPath><clipPath id="872f4cefdb"><path d="M 827.167969 349.289062 L 957.777344 453.761719 L 829.410156 614.238281 L 698.804688 509.765625 Z M 827.167969 349.289062 " clip-rule="nonzero"/></clipPath><clipPath id="b3af882e5e"><path d="M 827.167969 349.289062 L 957.777344 453.761719 L 829.410156 614.238281 L 698.804688 509.765625 Z M 827.167969 349.289062 " clip-rule="nonzero"/></clipPath><clipPath id="ac6bb4127c"><path d="M 826 443 L 828 443 L 828 446 L 826 446 Z M 826 443 " clip-rule="nonzero"/></clipPath><clipPath id="005ac1070e"><path d="M 827.167969 349.289062 L 957.777344 453.761719 L 829.410156 614.238281 L 698.804688 509.765625 Z M 827.167969 349.289062 " clip-rule="nonzero"/></clipPath><clipPath id="d3ce562ce8"><path d="M 827.167969 349.289062 L 957.777344 453.761719 L 829.410156 614.238281 L 698.804688 509.765625 Z M 827.167969 349.289062 " clip-rule="nonzero"/></clipPath><clipPath id="567990d679"><path d="M 827.167969 349.289062 L 957.777344 453.761719 L 829.410156 614.238281 L 698.804688 509.765625 Z M 827.167969 349.289062 " clip-rule="nonzero"/></clipPath><clipPath id="18eb7d7dea"><path d="M 824 442 L 827 442 L 827 445 L 824 445 Z M 824 442 " clip-rule="nonzero"/></clipPath><clipPath id="ec7dcff7e9"><path d="M 827.167969 349.289062 L 957.777344 453.761719 L 829.410156 614.238281 L 698.804688 509.765625 Z M 827.167969 349.289062 " clip-rule="nonzero"/></clipPath><clipPath id="83758c47bf"><path d="M 827.167969 349.289062 L 957.777344 453.761719 L 829.410156 614.238281 L 698.804688 509.765625 Z M 827.167969 349.289062 " clip-rule="nonzero"/></clipPath><clipPath id="f4793c3cbe"><path d="M 827.167969 349.289062 L 957.777344 453.761719 L 829.410156 614.238281 L 698.804688 509.765625 Z M 827.167969 349.289062 " clip-rule="nonzero"/></clipPath><clipPath id="d665a2d435"><path d="M 809 496 L 815 496 L 815 502 L 809 502 Z M 809 496 " clip-rule="nonzero"/></clipPath><clipPath id="29acfea47e"><path d="M 827.167969 349.289062 L 957.777344 453.761719 L 829.410156 614.238281 L 698.804688 509.765625 Z M 827.167969 349.289062 " clip-rule="nonzero"/></clipPath><clipPath id="76ff696adc"><path d="M 827.167969 349.289062 L 957.777344 453.761719 L 829.410156 614.238281 L 698.804688 509.765625 Z M 827.167969 349.289062 " clip-rule="nonzero"/></clipPath><clipPath id="0da9e28c49"><path d="M 827.167969 349.289062 L 957.777344 453.761719 L 829.410156 614.238281 L 698.804688 509.765625 Z M 827.167969 349.289062 " clip-rule="nonzero"/></clipPath><clipPath id="750bfbc171"><path d="M 797 512 L 805 512 L 805 521 L 797 521 Z M 797 512 " clip-rule="nonzero"/></clipPath><clipPath id="83de64f8ae"><path d="M 827.167969 349.289062 L 957.777344 453.761719 L 829.410156 614.238281 L 698.804688 509.765625 Z M 827.167969 349.289062 " clip-rule="nonzero"/></clipPath><clipPath id="c3fc9adf4a"><path d="M 827.167969 349.289062 L 957.777344 453.761719 L 829.410156 614.238281 L 698.804688 509.765625 Z M 827.167969 349.289062 " clip-rule="nonzero"/></clipPath><clipPath id="13d3228095"><path d="M 827.167969 349.289062 L 957.777344 453.761719 L 829.410156 614.238281 L 698.804688 509.765625 Z M 827.167969 349.289062 " clip-rule="nonzero"/></clipPath></defs><rect x="-144" width="1728" fill="#ffffff" y="-80.999999" height="971.999992" fill-opacity="1"/><g clip-path="url(#9ea675ab5d)"><g clip-path="url(#bf4fea583c)"><g clip-path="url(#e5349dfd6a)"><g clip-path="url(#a9306511cf)"><path fill="#000000" d="M 699.730469 229.125 C 699.488281 229.023438 699.234375 228.933594 698.984375 228.847656 C 688.484375 226.429688 678.734375 234.558594 674.105469 243.390625 C 669.46875 251.222656 668.625 263.441406 676.933594 269.128906 C 678.148438 269.933594 679.566406 270.394531 681.003906 270.585938 C 693.5 271.503906 703.871094 260.546875 706.824219 249.097656 C 709.289062 241.941406 707.246094 232.167969 699.730469 229.121094 Z M 658.054688 212.125 C 651.90625 209.71875 644.5625 213.921875 641.148438 219.339844 C 634.265625 230.023438 633.464844 246.558594 643.90625 255.242188 C 644.921875 255.957031 646.074219 256.472656 647.28125 256.773438 C 655.941406 258.820312 663.199219 251.152344 665.953125 243.65625 C 669.789062 233.851562 669.484375 220.527344 660.597656 213.578125 C 659.78125 212.949219 658.933594 212.46875 658.054688 212.125 Z M 712.277344 273.488281 C 701.488281 269.695312 689.835938 277.207031 684.667969 286.621094 C 680.289062 293.136719 680.066406 304.21875 687.898438 308.179688 C 699.210938 312.769531 711.964844 303.925781 716.652344 293.671875 C 720.25 287.101562 719.726562 277.066406 712.277344 273.488281 Z M 619.160156 237.09375 C 614.699219 235.171875 609.160156 236.011719 605.777344 239.96875 C 596.730469 250.550781 598.0625 269.332031 609.878906 277.324219 C 614.875 280.511719 621.347656 278.351562 624.78125 273.917969 C 632.101562 264.425781 631.507812 249.582031 623.710938 240.601562 C 622.488281 239.027344 620.90625 237.847656 619.160156 237.09375 Z M 657.132812 278.855469 C 648.347656 275.183594 637.546875 275.90625 629.0625 280.175781 C 619.660156 285.355469 610.835938 292.269531 604.75 301.238281 C 599.394531 307.28125 601.402344 317.671875 608.886719 320.878906 C 617.8125 324.925781 628.191406 321.964844 637.363281 325.277344 C 645.472656 327.3125 650.625 334.160156 656.378906 339.644531 C 661.15625 344.601562 669.621094 347.027344 675.246094 341.980469 C 680.289062 336.542969 679.722656 328.246094 679.261719 321.339844 C 677.332031 309.632812 675.179688 297.28125 668.0625 287.484375 C 665.234375 283.492188 661.425781 280.648438 657.132812 278.855469 Z M 657.132812 278.855469 " fill-opacity="1" fill-rule="nonzero"/></g></g></g></g><g clip-path="url(#a76c1993f9)"><g clip-path="url(#dbef042ed7)"><path fill="#40ced7" d="M 584.136719 282.738281 L 813.261719 282.738281 L 813.261719 511.863281 L 584.136719 511.863281 Z M 584.136719 282.738281 " fill-opacity="1" fill-rule="nonzero"/></g></g><path fill="#000000" d="M 558.367188 498.160156 C 561.320312 487.296875 556.851562 468.203125 573.566406 472.605469 L 599.160156 481.710938 C 626.636719 491.488281 598.40625 496.425781 603.210938 498.753906 C 598.640625 498.414062 558.367188 498.160156 558.367188 498.160156 Z M 558.367188 498.160156 " fill-opacity="1" fill-rule="nonzero"/><g clip-path="url(#dd729e8af8)"><path fill="#000000" d="M 482.527344 517.351562 L 482.527344 512.878906 C 482.527344 512.878906 489.527344 492.941406 516.621094 488.894531 C 540.128906 485.382812 553.359375 505.96875 553.359375 505.96875 L 541.605469 513.285156 C 541.605469 513.285156 533.667969 500.855469 516.328125 500.277344 C 491.101562 499.433594 482.527344 517.351562 482.527344 517.351562 Z M 482.527344 517.351562 " fill-opacity="1" fill-rule="nonzero"/></g><g clip-path="url(#4c67d86e51)"><path fill="#000000" d="M 515.652344 506.765625 C 497.664062 506.765625 483.082031 518.210938 483.082031 532.332031 C 483.082031 546.453125 497.664062 557.898438 515.652344 557.898438 C 522.5625 557.898438 528.972656 556.207031 534.246094 553.324219 C 530.160156 554.960938 525.53125 555.878906 520.628906 555.878906 C 504.058594 555.878906 490.628906 545.339844 490.628906 532.332031 C 490.628906 519.324219 504.058594 508.78125 520.628906 508.78125 C 525.542969 508.78125 530.1875 509.710938 534.28125 511.355469 C 529.003906 508.460938 522.578125 506.765625 515.652344 506.765625 Z M 515.652344 506.765625 " fill-opacity="1" fill-rule="evenodd"/></g><path fill="#000000" d="M 674.214844 506.996094 C 692.4375 506.996094 707.210938 517.996094 707.210938 531.5625 C 707.210938 545.128906 692.4375 556.128906 674.214844 556.128906 C 667.210938 556.128906 660.71875 554.503906 655.378906 551.730469 C 659.519531 553.304688 664.210938 554.1875 669.175781 554.1875 C 685.957031 554.1875 699.5625 544.058594 699.5625 531.5625 C 699.5625 519.066406 685.957031 508.9375 669.175781 508.9375 C 664.195312 508.9375 659.492188 509.828125 655.34375 511.40625 C 660.691406 508.628906 667.199219 506.996094 674.214844 506.996094 Z M 674.214844 506.996094 " fill-opacity="1" fill-rule="evenodd"/><path fill="#000000" d="M 518.417969 532.867188 L 510.585938 533.644531 L 554.320312 464.402344 L 601.035156 455.820312 L 615.515625 458.273438 L 559.746094 468.082031 Z M 518.417969 532.867188 " fill-opacity="1" fill-rule="nonzero"/><path fill="#000000" d="M 521.175781 461.425781 L 522.957031 480.996094 C 522.957031 480.996094 544.40625 473.15625 543.316406 464.453125 C 542.273438 456.140625 520.570312 453.988281 520.570312 453.988281 Z M 521.175781 461.425781 " fill-opacity="1" fill-rule="nonzero"/><path fill="#000000" d="M 608.808594 500.160156 L 608.808594 497.421875 L 618.789062 485.371094 C 628.789062 514.417969 712.757812 450.757812 705.265625 493.039062 C 705.265625 493.039062 640.074219 505.089844 636.082031 505.089844 C 632.09375 505.089844 608.808594 500.707031 608.808594 500.160156 Z M 608.808594 500.160156 " fill-opacity="1" fill-rule="nonzero"/><g clip-path="url(#5dd74fd1e6)"><g clip-path="url(#a737669729)"><g clip-path="url(#cbae35a750)"><g clip-path="url(#84de798162)"><g clip-path="url(#bc2a259536)"><g clip-path="url(#20a979e9e1)"><path fill="#ffffff" d="M 781.101562 407.742188 L 910.949219 511.578125 C 910.949219 511.578125 911.074219 511.921875 910.585938 512.515625 C 910.101562 513.105469 909.40625 513.644531 909.40625 513.644531 L 909.21875 513.6875 L 779.378906 409.824219 C 779.378906 409.824219 779.800781 408.851562 780.082031 408.5 C 780.363281 408.144531 780.785156 407.652344 781.101562 407.742188 " fill-opacity="1" fill-rule="nonzero"/></g></g></g></g></g></g><g clip-path="url(#60496839b8)"><g clip-path="url(#e417b73609)"><g clip-path="url(#0adf0f497c)"><g clip-path="url(#664387eb73)"><path fill="#ffffff" d="M 860.472656 480.523438 C 860.472656 480.523438 860.203125 479.746094 860.457031 478.964844 C 860.710938 478.179688 861.402344 477.121094 861.402344 477.121094 L 864.015625 473.78125 C 864.015625 473.78125 864.34375 473.449219 864.777344 473.816406 C 865.210938 474.179688 865.09375 474.605469 865.09375 474.605469 C 865.09375 474.605469 866.015625 474.703125 866.195312 474.851562 C 866.378906 474.996094 866.667969 475.671875 866.667969 475.671875 C 866.667969 475.671875 867.625 475.417969 868.015625 475.789062 C 868.402344 476.160156 868.441406 476.542969 868.382812 476.648438 C 868.320312 476.753906 868.089844 477.179688 868.089844 477.179688 L 868.304688 477.253906 C 868.304688 477.253906 868.835938 477.019531 868.996094 477.042969 C 869.15625 477.070312 869.425781 477.167969 869.519531 477.285156 C 869.609375 477.402344 869.765625 477.71875 869.800781 477.625 C 869.835938 477.53125 870.304688 477.199219 870.429688 477.414062 C 870.550781 477.628906 870.441406 478.296875 870.414062 478.421875 C 870.382812 478.550781 869.820312 479.792969 869.816406 479.847656 C 869.808594 479.90625 869.359375 480.632812 869.269531 480.746094 C 869.183594 480.855469 868.273438 482.054688 868.273438 482.054688 C 868.273438 482.054688 867.613281 483.03125 867.34375 483.21875 C 867.070312 483.40625 866.324219 483.734375 865.789062 483.761719 C 865.253906 483.789062 862.164062 483.066406 862.164062 483.066406 L 860.472656 480.523438 " fill-opacity="1" fill-rule="nonzero"/></g></g></g></g><g clip-path="url(#9c9ac8f09d)"><g clip-path="url(#d4dd490014)"><g clip-path="url(#7eea9f1c96)"><g clip-path="url(#9f5b6ee6af)"><path fill="#252237" d="M 764.734375 562.492188 L 762.789062 560.933594 L 891.140625 400.472656 L 893.089844 402.03125 L 764.734375 562.492188 " fill-opacity="1" fill-rule="nonzero"/></g></g></g></g><g clip-path="url(#9afda67ca3)"><g clip-path="url(#6cd16111f4)"><g clip-path="url(#59b785700b)"><g clip-path="url(#14ffa170c7)"><path fill="#ffffff" d="M 831.230469 463.988281 C 831.230469 463.988281 835.542969 465.140625 835.625 465.265625 C 835.703125 465.390625 844.554688 473.527344 844.554688 473.527344 L 837.3125 478.042969 L 826.992188 469.785156 L 831.230469 463.988281 " fill-opacity="1" fill-rule="nonzero"/></g></g></g></g><g clip-path="url(#868177b3c1)"><g clip-path="url(#f60b73475e)"><g clip-path="url(#8fec0324e7)"><g clip-path="url(#4484b85258)"><path fill="#40ced7" d="M 801.179688 512.566406 C 801.179688 512.566406 799.941406 513.511719 798.644531 515.132812 C 797.347656 516.753906 797.859375 518.132812 798.460938 518.988281 C 799.0625 519.847656 800.207031 520.386719 801.597656 519.671875 C 802.988281 518.953125 804.808594 517.300781 804.808594 517.300781 L 801.179688 512.566406 " fill-opacity="1" fill-rule="nonzero"/></g></g></g></g><g clip-path="url(#c1596b6657)"><g clip-path="url(#bb79135622)"><g clip-path="url(#de1d3b16e5)"><g clip-path="url(#9f184ca7b0)"><path fill="#ffffff" d="M 824.449219 442.589844 C 824.449219 442.589844 823.632812 443.394531 823.246094 443.207031 C 822.859375 443.019531 822.671875 442.75 823.027344 442.210938 C 823.382812 441.675781 823.828125 441.167969 824.003906 441.050781 C 824.175781 440.933594 824.660156 441 824.949219 441.378906 C 825.238281 441.757812 825.101562 442.9375 825.101562 442.9375 C 825.101562 442.9375 824.59375 442.558594 824.449219 442.589844 " fill-opacity="1" fill-rule="nonzero"/></g></g></g></g><g clip-path="url(#4275424399)"><g clip-path="url(#a8d9db3619)"><g clip-path="url(#432dc3a190)"><g clip-path="url(#f54385b8fd)"><path fill="#ffffff" d="M 823.148438 441.375 L 823.292969 441.488281 C 823.292969 441.488281 823.734375 440.621094 823.144531 440.1875 C 822.550781 439.757812 821.976562 440.050781 821.976562 440.050781 C 821.976562 440.050781 821.535156 441.238281 821.597656 441.488281 C 821.664062 441.734375 821.992188 441.925781 822.371094 441.855469 C 822.75 441.785156 823.148438 441.375 823.148438 441.375 " fill-opacity="1" fill-rule="nonzero"/></g></g></g></g><g clip-path="url(#dd8c602fe8)"><g clip-path="url(#9aad882177)"><g clip-path="url(#12127bed57)"><g clip-path="url(#9180f5d40d)"><path fill="#ffffff" d="M 825.832031 446.984375 C 825.832031 446.984375 824.148438 449.277344 822.828125 449.589844 C 821.507812 449.90625 819.890625 449.234375 819.792969 449.152344 C 819.691406 449.074219 819.023438 448.679688 819.023438 448.679688 L 819.050781 448.332031 C 819.050781 448.332031 817.949219 446.492188 817.773438 445.808594 C 817.59375 445.121094 817.195312 444.035156 818.152344 442.988281 C 818.847656 442.230469 819.699219 441.234375 820.117188 440.746094 C 820.253906 440.582031 820.429688 440.449219 820.621094 440.351562 C 820.800781 440.265625 821.082031 440.09375 821.496094 439.761719 C 822.324219 439.09375 822.9375 438.964844 822.761719 439.65625 C 822.585938 440.347656 822.0625 441.21875 821.675781 441.566406 C 821.289062 441.917969 820.644531 442.832031 820.644531 442.832031 L 825.832031 446.984375 " fill-opacity="1" fill-rule="nonzero"/></g></g></g></g><g clip-path="url(#3614adf01c)"><g clip-path="url(#0e1ba27d6c)"><g clip-path="url(#d6cab1c539)"><g clip-path="url(#62ce67c49b)"><path fill="#ffffff" d="M 827.421875 444.808594 C 827.414062 444.816406 826.714844 445.113281 826.511719 444.921875 C 826.308594 444.726562 826.167969 444.507812 826.476562 444.082031 C 826.789062 443.65625 827.261719 443.789062 827.433594 443.859375 C 827.605469 443.929688 827.734375 444.179688 827.707031 444.414062 C 827.675781 444.644531 827.558594 444.902344 827.558594 444.902344 L 827.421875 444.808594 " fill-opacity="1" fill-rule="nonzero"/></g></g></g></g><g clip-path="url(#59fdd27840)"><g clip-path="url(#66faafc2a0)"><g clip-path="url(#46eddbb272)"><g clip-path="url(#764728ebfa)"><path fill="#ffffff" d="M 825.972656 443.859375 C 825.972656 443.859375 825.386719 444.402344 825.167969 444.519531 C 824.949219 444.636719 824.664062 444.679688 824.414062 444.355469 C 824.167969 444.03125 824.230469 443.863281 824.367188 443.605469 C 824.503906 443.347656 825.050781 442.699219 825.207031 442.636719 C 825.363281 442.574219 825.882812 442.507812 826.175781 442.835938 C 826.464844 443.164062 826.472656 443.460938 826.492188 443.605469 C 826.515625 443.746094 826.40625 443.980469 826.40625 443.980469 C 826.40625 443.980469 826.089844 443.75 825.972656 443.859375 " fill-opacity="1" fill-rule="nonzero"/></g></g></g></g><g clip-path="url(#b8605be841)"><g clip-path="url(#f6794e4816)"><g clip-path="url(#2fdfd52312)"><g clip-path="url(#ec5025ca73)"><path fill="#40ced7" d="M 811.59375 496.214844 C 811.59375 496.214844 810.152344 497.761719 810.121094 499.289062 C 810.089844 500.816406 812.644531 502.65625 813.777344 501.144531 C 814.90625 499.628906 811.59375 496.214844 811.59375 496.214844 " fill-opacity="1" fill-rule="nonzero"/></g></g></g></g><g clip-path="url(#b1bd50de61)"><g clip-path="url(#baee83ce08)"><g clip-path="url(#e77119699b)"><g clip-path="url(#6418cab362)"><path fill="#252237" d="M 811.71875 484.6875 C 811.71875 484.6875 809.847656 488.570312 809.785156 491.625 C 809.71875 494.675781 810.363281 496.742188 810.761719 497.785156 C 811.15625 498.828125 811.964844 499.878906 813.828125 499.894531 C 815.6875 499.914062 817.933594 494.375 817.933594 494.375 L 811.71875 484.6875 " fill-opacity="1" fill-rule="nonzero"/></g></g></g></g><g clip-path="url(#e41e95dfaa)"><g clip-path="url(#faf09292bb)"><g clip-path="url(#b2bba2ed3e)"><g clip-path="url(#3755ad163c)"><path fill="#252237" d="M 818.125 492.433594 C 818.125 492.433594 816.703125 494.136719 812.730469 499.78125 C 808.984375 505.105469 803.183594 507.964844 801.125 510.589844 C 799.0625 513.210938 799.078125 516.367188 799.992188 517.945312 C 800.910156 519.523438 802.179688 519.496094 805.050781 518.125 C 807.921875 516.75 811.59375 513.722656 817.746094 509.257812 C 823.898438 504.789062 830.507812 501.167969 831.945312 498.007812 C 833.382812 494.84375 818.125 492.433594 818.125 492.433594 " fill-opacity="1" fill-rule="nonzero"/></g></g></g></g><g clip-path="url(#fa7ec905b6)"><g clip-path="url(#a6bf681618)"><g clip-path="url(#5a4ed6119a)"><g clip-path="url(#17cc6278b2)"><path fill="#40ced7" d="M 860.460938 486.324219 C 862.476562 483.78125 862.699219 483.25 862.699219 483.25 C 862.242188 481.890625 861.726562 480.738281 860.273438 480.582031 L 852.535156 484.316406 C 852.535156 484.316406 853.367188 481.613281 850.117188 477.84375 C 846.863281 474.074219 845.566406 473.199219 844.855469 472.65625 C 844.136719 472.117188 842.820312 471.230469 842.820312 471.230469 L 842.464844 471.757812 L 842.386719 472.035156 C 842.640625 472.808594 842.652344 473.738281 841.925781 474.246094 C 841.664062 474.429688 841.359375 474.542969 841.046875 474.632812 C 838.902344 475.226562 836.519531 474.433594 834.933594 472.914062 C 833.097656 471.699219 831.800781 469.546875 831.910156 467.324219 C 831.929688 467 831.972656 466.679688 832.09375 466.378906 C 832.429688 465.5625 833.339844 465.367188 834.148438 465.445312 L 834.40625 465.3125 L 834.839844 464.847656 C 834.839844 464.847656 833.6875 463.757812 833 463.175781 C 832.316406 462.597656 831.179688 461.527344 826.785156 459.183594 C 822.394531 456.839844 819.941406 458.242188 819.941406 458.242188 L 821.882812 449.871094 C 821.410156 448.492188 820.175781 448.242188 818.75 448.09375 C 818.75 448.09375 818.277344 448.429688 816.242188 450.949219 C 814.203125 453.472656 812.15625 456.992188 809.589844 462.917969 C 807.027344 468.84375 809.644531 469.308594 810.410156 470.546875 C 811.175781 471.78125 813.324219 471.90625 814.371094 471.605469 C 815.421875 471.300781 817.871094 470.941406 818.292969 471.382812 C 818.714844 471.828125 817.609375 473.601562 817.609375 473.601562 C 817.609375 473.601562 809.726562 479.226562 809.902344 485.453125 C 810.082031 491.679688 816.652344 495.765625 816.652344 495.765625 C 816.652344 495.765625 822.082031 501.277344 828.195312 500.085938 C 834.308594 498.890625 838.0625 489.964844 838.0625 489.964844 C 838.0625 489.964844 839.550781 488.496094 840.078125 488.808594 C 840.601562 489.121094 840.789062 491.59375 840.722656 492.683594 C 840.660156 493.773438 841.25 495.839844 842.625 496.316406 C 844 496.789062 845.027344 499.242188 850.25 495.4375 C 855.46875 491.636719 858.449219 488.863281 860.460938 486.324219 " fill-opacity="1" fill-rule="nonzero"/></g></g></g></g><g clip-path="url(#2ca795d4ab)"><g clip-path="url(#a5b4b437f4)"><g clip-path="url(#e3a4745be8)"><g clip-path="url(#c14edf2a94)"><path fill="#252237" d="M 850.121094 467.476562 C 846.402344 472.125 840.429688 473.523438 836.777344 470.605469 C 833.128906 467.683594 833.183594 461.550781 836.902344 456.902344 C 840.617188 452.253906 846.589844 450.851562 850.242188 453.773438 C 853.890625 456.691406 853.835938 462.828125 850.121094 467.476562 " fill-opacity="1" fill-rule="nonzero"/></g></g></g></g><g clip-path="url(#9b59728ba1)"><g clip-path="url(#a4bc2cc6ba)"><g clip-path="url(#86a564a241)"><g clip-path="url(#e2144fa7b5)"><path fill="#252237" d="M 867.308594 480.375 L 820.539062 442.964844 C 820.46875 442.90625 820.457031 442.800781 820.515625 442.730469 C 820.570312 442.660156 820.675781 442.648438 820.746094 442.703125 L 867.515625 480.117188 C 867.589844 480.175781 867.601562 480.277344 867.542969 480.347656 C 867.488281 480.421875 867.382812 480.433594 867.308594 480.375 " fill-opacity="1" fill-rule="nonzero"/></g></g></g></g><g clip-path="url(#56f4e8b00d)"><g clip-path="url(#1e6bdb1fc6)"><g clip-path="url(#249c4298be)"><g clip-path="url(#bb8f120e45)"><path fill="#252237" d="M 819.113281 441.824219 L 779.265625 409.949219 C 779.214844 409.90625 779.191406 409.84375 779.207031 409.78125 C 779.210938 409.757812 779.34375 409.222656 779.992188 408.339844 C 780.65625 407.4375 781.046875 407.523438 781.152344 407.574219 C 781.164062 407.578125 781.175781 407.585938 781.183594 407.59375 L 821.382812 439.746094 C 821.453125 439.804688 821.464844 439.910156 821.40625 439.980469 C 821.347656 440.050781 821.246094 440.0625 821.171875 440.003906 L 781.011719 407.878906 C 780.917969 407.882812 780.65625 408 780.257812 408.539062 C 779.808594 409.148438 779.625 409.578125 779.5625 409.757812 L 819.320312 441.566406 C 819.394531 441.621094 819.40625 441.726562 819.347656 441.796875 C 819.289062 441.867188 819.1875 441.882812 819.113281 441.824219 " fill-opacity="1" fill-rule="nonzero"/></g></g></g></g><g clip-path="url(#4db799b363)"><g clip-path="url(#8a8d03dc08)"><g clip-path="url(#ff6a7299db)"><g clip-path="url(#a5df558317)"><path fill="#252237" d="M 863.808594 474.109375 L 827.371094 444.964844 C 827.300781 444.90625 827.289062 444.800781 827.34375 444.730469 C 827.402344 444.660156 827.507812 444.648438 827.578125 444.703125 L 864.019531 473.851562 C 864.089844 473.910156 864.097656 474.011719 864.042969 474.085938 C 863.984375 474.15625 863.882812 474.167969 863.808594 474.109375 " fill-opacity="1" fill-rule="nonzero"/></g></g></g></g><g clip-path="url(#c84d378d6e)"><g clip-path="url(#1bcfbe4af2)"><g clip-path="url(#f7f0c9433a)"><g clip-path="url(#fae8decae3)"><g clip-path="url(#9dfab3101f)"><g clip-path="url(#77e9111440)"><path fill="#252237" d="M 910.792969 511.679688 Z M 909.164062 513.855469 L 868.722656 481.507812 C 868.652344 481.449219 868.640625 481.34375 868.695312 481.269531 C 868.753906 481.199219 868.859375 481.1875 868.929688 481.246094 L 909.28125 513.523438 C 909.445312 513.421875 909.824219 513.148438 910.320312 512.574219 C 910.761719 512.070312 910.816406 511.789062 910.800781 511.699219 L 870.058594 479.109375 C 869.988281 479.054688 869.976562 478.949219 870.035156 478.878906 C 870.089844 478.804688 870.195312 478.792969 870.269531 478.851562 L 911.039062 511.464844 C 911.050781 511.472656 911.058594 511.484375 911.066406 511.492188 C 911.136719 511.585938 911.308594 511.945312 910.574219 512.792969 C 909.855469 513.621094 909.363281 513.867188 909.339844 513.875 C 909.28125 513.902344 909.214844 513.894531 909.164062 513.855469 " fill-opacity="1" fill-rule="nonzero"/></g></g></g></g></g></g><g clip-path="url(#e2f8e64347)"><g clip-path="url(#310d49fb70)"><g clip-path="url(#fb8f1c0fd6)"><g clip-path="url(#d04ee709ec)"><path fill="#252237" d="M 816.753906 495.636719 C 816.761719 495.640625 816.765625 495.644531 816.769531 495.652344 C 816.78125 495.664062 818.140625 497.03125 820.222656 498.234375 C 822.128906 499.339844 825.058594 500.527344 828.164062 499.921875 C 831.265625 499.316406 833.746094 496.628906 835.28125 494.484375 C 836.957031 492.144531 837.902344 489.921875 837.910156 489.902344 C 837.917969 489.878906 837.929688 489.863281 837.945312 489.84375 C 837.960938 489.832031 838.332031 489.464844 838.773438 489.136719 C 839.421875 488.648438 839.875 488.496094 840.160156 488.664062 C 840.269531 488.726562 840.589844 488.921875 840.785156 490.433594 C 840.902344 491.292969 840.917969 492.1875 840.890625 492.695312 C 840.839844 493.542969 841.226562 495.121094 842.140625 495.855469 C 842.304688 495.984375 842.484375 496.089844 842.679688 496.15625 C 842.96875 496.257812 843.238281 496.433594 843.523438 496.621094 C 844.648438 497.367188 846.050781 498.292969 850.148438 495.304688 C 855.035156 491.746094 858.175781 488.941406 860.332031 486.21875 C 861.980469 484.140625 862.417969 483.421875 862.519531 483.238281 C 862.089844 481.972656 861.609375 480.917969 860.304688 480.753906 L 852.609375 484.464844 C 852.550781 484.492188 852.480469 484.484375 852.429688 484.441406 C 852.378906 484.398438 852.359375 484.328125 852.378906 484.265625 C 852.378906 484.261719 852.574219 483.597656 852.378906 482.496094 C 852.195312 481.476562 851.636719 479.859375 849.988281 477.953125 C 846.964844 474.445312 845.625 473.441406 844.902344 472.902344 C 844.851562 472.863281 844.800781 472.824219 844.753906 472.789062 C 844.183594 472.359375 843.21875 471.703125 842.863281 471.460938 L 842.617188 471.828125 L 842.5625 472.03125 C 842.882812 473.0625 842.6875 473.914062 842.023438 474.382812 C 841.78125 474.550781 841.484375 474.679688 841.09375 474.789062 C 839.1875 475.320312 836.976562 474.796875 835.296875 473.453125 C 835.136719 473.324219 834.980469 473.1875 834.828125 473.042969 C 832.847656 471.726562 831.636719 469.480469 831.746094 467.3125 C 831.765625 466.90625 831.828125 466.589844 831.941406 466.316406 C 832.25 465.566406 833.039062 465.1875 834.113281 465.277344 L 834.304688 465.175781 L 834.605469 464.855469 C 834.289062 464.5625 833.4375 463.765625 832.894531 463.304688 C 832.847656 463.265625 832.800781 463.226562 832.753906 463.183594 C 832.066406 462.597656 830.792969 461.511719 826.707031 459.328125 C 824.484375 458.144531 822.785156 457.949219 821.75 457.996094 C 820.632812 458.046875 820.027344 458.382812 820.023438 458.386719 C 819.964844 458.417969 819.894531 458.414062 819.84375 458.375 C 819.789062 458.332031 819.765625 458.269531 819.78125 458.203125 L 821.707031 449.882812 C 821.261719 448.640625 820.128906 448.40625 818.800781 448.265625 C 818.644531 448.402344 818.039062 448.988281 816.371094 451.054688 C 814.1875 453.757812 812.144531 457.433594 809.742188 462.984375 C 807.730469 467.640625 808.941406 468.804688 809.914062 469.738281 C 810.160156 469.972656 810.390625 470.199219 810.554688 470.457031 C 811.277344 471.632812 813.363281 471.722656 814.324219 471.445312 C 814.8125 471.304688 815.6875 471.125 816.550781 471.046875 C 818.074219 470.910156 818.328125 471.179688 818.414062 471.269531 C 818.644531 471.511719 818.59375 471.988281 818.261719 472.726562 C 818.035156 473.230469 817.761719 473.671875 817.75 473.691406 C 817.738281 473.710938 817.722656 473.726562 817.707031 473.738281 C 817.683594 473.75 815.722656 475.160156 813.808594 477.308594 C 812.054688 479.277344 809.980469 482.289062 810.070312 485.449219 C 810.160156 488.609375 811.960938 491.207031 813.460938 492.824219 C 815.089844 494.589844 816.722656 495.617188 816.738281 495.625 C 816.742188 495.628906 816.75 495.632812 816.753906 495.636719 Z M 817.703125 496.910156 C 817.039062 496.378906 816.625 495.976562 816.546875 495.898438 C 816.367188 495.78125 814.792969 494.757812 813.222656 493.058594 C 812.246094 492 811.457031 490.894531 810.886719 489.765625 C 810.164062 488.351562 809.777344 486.902344 809.738281 485.457031 C 809.695312 484.007812 810.082031 482.476562 810.882812 480.898438 C 811.523438 479.644531 812.425781 478.359375 813.566406 477.082031 C 815.378906 475.046875 817.238281 473.667969 817.484375 473.488281 C 817.980469 472.6875 818.371094 471.707031 818.171875 471.496094 C 817.859375 471.164062 815.601562 471.421875 814.417969 471.765625 C 813.816406 471.9375 812.984375 471.957031 812.253906 471.816406 C 811.605469 471.691406 810.734375 471.382812 810.269531 470.632812 C 810.128906 470.410156 809.914062 470.199219 809.683594 469.980469 C 808.691406 469.027344 807.332031 467.722656 809.4375 462.851562 C 811.851562 457.273438 813.910156 453.570312 816.113281 450.84375 C 818.140625 448.335938 818.632812 447.972656 818.652344 447.957031 C 818.683594 447.933594 818.726562 447.921875 818.765625 447.925781 C 820.199219 448.078125 821.53125 448.335938 822.039062 449.820312 C 822.050781 449.847656 822.050781 449.878906 822.042969 449.910156 L 820.175781 457.957031 C 820.480469 457.84375 820.996094 457.703125 821.707031 457.667969 C 822.789062 457.613281 824.5625 457.808594 826.863281 459.035156 C 830.980469 461.234375 832.273438 462.335938 832.96875 462.929688 C 833.015625 462.972656 833.0625 463.011719 833.109375 463.050781 C 833.789062 463.625 834.941406 464.714844 834.953125 464.726562 C 835.019531 464.792969 835.023438 464.894531 834.960938 464.960938 L 834.527344 465.425781 C 834.515625 465.4375 834.5 465.449219 834.484375 465.457031 L 834.226562 465.59375 C 834.199219 465.609375 834.164062 465.613281 834.132812 465.613281 C 833.6875 465.570312 832.609375 465.566406 832.25 466.445312 C 832.148438 466.679688 832.097656 466.964844 832.078125 467.332031 C 831.972656 469.386719 833.132812 471.523438 835.023438 472.773438 C 835.03125 472.78125 835.039062 472.785156 835.046875 472.792969 C 836.683594 474.363281 839.023438 475.023438 841.003906 474.46875 C 841.359375 474.371094 841.621094 474.257812 841.832031 474.109375 C 842.609375 473.566406 842.371094 472.515625 842.230469 472.085938 C 842.21875 472.058594 842.21875 472.023438 842.226562 471.992188 L 842.304688 471.710938 C 842.308594 471.695312 842.316406 471.679688 842.328125 471.664062 L 842.679688 471.140625 C 842.730469 471.0625 842.835938 471.042969 842.910156 471.09375 C 842.925781 471.101562 844.242188 471.988281 844.953125 472.523438 C 845 472.5625 845.050781 472.597656 845.101562 472.636719 C 845.832031 473.183594 847.191406 474.199219 850.242188 477.734375 C 851.945312 479.710938 852.523438 481.398438 852.710938 482.464844 C 852.832031 483.167969 852.804688 483.703125 852.761719 484.023438 L 860.203125 480.433594 C 860.230469 480.421875 860.261719 480.414062 860.292969 480.417969 C 861.851562 480.589844 862.394531 481.828125 862.855469 483.195312 C 862.871094 483.234375 862.867188 483.277344 862.851562 483.3125 C 862.84375 483.335938 862.597656 483.894531 860.59375 486.425781 C 858.417969 489.171875 855.257812 491.996094 850.347656 495.574219 C 846.058594 498.699219 844.484375 497.660156 843.339844 496.898438 C 843.074219 496.722656 842.820312 496.558594 842.570312 496.472656 C 841.738281 496.183594 841.25 495.402344 840.980469 494.796875 C 840.683594 494.113281 840.519531 493.300781 840.558594 492.675781 C 840.632812 491.445312 840.386719 489.1875 839.992188 488.953125 C 839.746094 488.804688 838.875 489.402344 838.203125 490.058594 C 838.082031 490.339844 837.140625 492.457031 835.554688 494.671875 C 834.558594 496.066406 833.503906 497.230469 832.421875 498.125 C 831.058594 499.253906 829.648438 499.96875 828.226562 500.246094 C 826.808594 500.523438 825.308594 500.464844 823.769531 500.074219 C 822.542969 499.761719 821.292969 499.238281 820.046875 498.515625 C 819.097656 497.96875 818.296875 497.386719 817.703125 496.910156 " fill-opacity="1" fill-rule="nonzero"/></g></g></g></g><g clip-path="url(#04204545e6)"><g clip-path="url(#5de8e2e6b6)"><g clip-path="url(#219e5386e0)"><g clip-path="url(#d7891aa6db)"><path fill="#252237" d="M 813.691406 462.125 C 813.683594 462.121094 813.675781 462.113281 813.671875 462.105469 C 813.609375 462.039062 813.613281 461.933594 813.683594 461.871094 C 813.824219 461.746094 817.152344 458.71875 819.902344 458.078125 C 819.992188 458.058594 820.082031 458.113281 820.101562 458.203125 C 820.125 458.292969 820.070312 458.382812 819.980469 458.402344 C 817.3125 459.023438 813.941406 462.085938 813.90625 462.117188 C 813.84375 462.171875 813.753906 462.175781 813.691406 462.125 " fill-opacity="1" fill-rule="nonzero"/></g></g></g></g><g clip-path="url(#4cf99e0556)"><g clip-path="url(#f0da9ff722)"><g clip-path="url(#1080a0d7ea)"><g clip-path="url(#dea3354689)"><path fill="#252237" d="M 850.121094 491.265625 C 850.058594 491.214844 850.039062 491.125 850.082031 491.054688 C 850.101562 491.011719 852.351562 487.050781 852.371094 484.3125 C 852.371094 484.222656 852.445312 484.148438 852.539062 484.148438 C 852.628906 484.148438 852.703125 484.222656 852.703125 484.316406 C 852.683594 487.140625 850.464844 491.054688 850.367188 491.21875 C 850.324219 491.296875 850.222656 491.324219 850.140625 491.28125 C 850.136719 491.277344 850.128906 491.269531 850.121094 491.265625 " fill-opacity="1" fill-rule="nonzero"/></g></g></g></g><g clip-path="url(#16adba3d7f)"><g clip-path="url(#2a35c633a2)"><g clip-path="url(#6cfb80d5e1)"><g clip-path="url(#c9427217d5)"><path fill="#252237" d="M 862.523438 483.210938 C 862.46875 483.171875 862.449219 483.097656 862.46875 483.03125 C 862.496094 482.945312 862.589844 482.894531 862.675781 482.925781 C 863.117188 483.0625 864.59375 483.515625 865.148438 483.535156 C 865.203125 483.535156 865.265625 483.539062 865.324219 483.539062 C 866.023438 483.570312 866.980469 483.613281 867.671875 482.613281 C 868.257812 481.773438 869.027344 480.742188 869.4375 480.203125 C 869.546875 480.050781 869.628906 479.875 869.675781 479.683594 C 869.742188 479.414062 869.878906 479.074219 870.078125 478.664062 C 870.417969 477.96875 870.417969 477.621094 870.363281 477.566406 C 870.355469 477.5625 870.289062 477.546875 870.125 477.632812 C 869.496094 477.949219 868.796875 478.632812 868.566406 479.042969 C 868.304688 479.507812 867.566406 480.324219 867.535156 480.359375 C 867.472656 480.425781 867.367188 480.429688 867.300781 480.371094 C 867.234375 480.308594 867.230469 480.203125 867.289062 480.132812 C 867.296875 480.125 868.035156 479.3125 868.277344 478.878906 C 868.539062 478.417969 869.28125 477.6875 869.972656 477.335938 C 870.3125 477.160156 870.5 477.234375 870.59375 477.332031 C 870.878906 477.609375 870.632812 478.289062 870.375 478.8125 C 870.140625 479.292969 870.042969 479.59375 870 479.761719 C 869.941406 480 869.839844 480.214844 869.699219 480.402344 C 869.296875 480.941406 868.527344 481.96875 867.945312 482.804688 C 867.148438 483.953125 866.042969 483.90625 865.3125 483.871094 C 865.25 483.867188 865.191406 483.867188 865.136719 483.863281 C 864.558594 483.847656 863.152344 483.421875 862.578125 483.238281 C 862.558594 483.234375 862.539062 483.222656 862.523438 483.210938 " fill-opacity="1" fill-rule="nonzero"/></g></g></g></g><g clip-path="url(#c71d0077f0)"><g clip-path="url(#1e8e4b9164)"><g clip-path="url(#1f2c6ffbf4)"><g clip-path="url(#7d2863784c)"><path fill="#252237" d="M 860.328125 480.628906 C 860.222656 480.265625 860.171875 479.917969 860.175781 479.597656 C 860.195312 478.195312 862.023438 476.078125 862.101562 475.988281 L 862.351562 476.207031 C 862.335938 476.226562 860.523438 478.320312 860.507812 479.597656 C 860.507812 479.886719 860.550781 480.203125 860.644531 480.539062 L 860.328125 480.628906 " fill-opacity="1" fill-rule="nonzero"/></g></g></g></g><g clip-path="url(#f579cbaab1)"><g clip-path="url(#b321d1c066)"><g clip-path="url(#d09ff84f5b)"><g clip-path="url(#1e9700a57c)"><path fill="#252237" d="M 868.148438 479.039062 C 867.957031 478.886719 867.832031 478.628906 867.824219 478.351562 C 867.8125 478.042969 867.972656 477.699219 868.070312 477.519531 L 868.039062 477.496094 C 868 477.464844 867.980469 477.417969 867.976562 477.367188 C 867.976562 477.316406 868 477.269531 868.039062 477.238281 C 868.332031 476.992188 869.035156 476.648438 869.554688 477.101562 C 869.695312 477.222656 869.804688 477.363281 869.882812 477.523438 C 869.925781 477.605469 869.890625 477.703125 869.808594 477.746094 C 869.726562 477.785156 869.628906 477.753906 869.585938 477.671875 C 869.527344 477.554688 869.441406 477.445312 869.335938 477.351562 C 869.03125 477.085938 868.640625 477.246094 868.417969 477.378906 C 868.457031 477.433594 868.464844 477.507812 868.425781 477.566406 C 868.347656 477.691406 868.144531 478.066406 868.152344 478.339844 C 868.164062 478.582031 868.292969 478.757812 868.417969 478.820312 C 868.5 478.863281 868.53125 478.964844 868.488281 479.046875 C 868.445312 479.125 868.34375 479.160156 868.265625 479.117188 C 868.222656 479.09375 868.183594 479.070312 868.148438 479.039062 " fill-opacity="1" fill-rule="nonzero"/></g></g></g></g><g clip-path="url(#856d99dff1)"><g clip-path="url(#0f4fc6bf1c)"><g clip-path="url(#4863ec7d19)"><g clip-path="url(#3e9af17ee0)"><path fill="#252237" d="M 866.65625 476.5 Z M 866.546875 478.097656 C 866.480469 478.042969 866.414062 477.976562 866.347656 477.894531 C 866.054688 477.527344 866.46875 476.746094 866.632812 476.464844 C 866.597656 476.410156 866.515625 476.3125 866.359375 476.164062 C 866.292969 476.101562 866.289062 475.996094 866.355469 475.929688 C 866.414062 475.863281 866.523438 475.859375 866.585938 475.921875 C 866.929688 476.246094 866.980469 476.378906 866.984375 476.472656 C 866.984375 476.507812 866.976562 476.539062 866.960938 476.566406 C 866.730469 476.933594 866.480469 477.527344 866.609375 477.6875 C 866.730469 477.839844 866.84375 477.917969 866.945312 477.921875 C 867.066406 477.925781 867.210938 477.84375 867.375 477.667969 C 867.824219 477.203125 868.199219 476.675781 868.261719 476.519531 C 868.296875 476.429688 868.191406 476.046875 867.820312 475.875 C 867.558594 475.757812 867.003906 475.769531 866.6875 475.863281 C 866.597656 475.886719 866.503906 475.835938 866.480469 475.746094 C 866.457031 475.660156 866.507812 475.566406 866.59375 475.542969 C 866.976562 475.433594 867.605469 475.414062 867.957031 475.574219 C 868.4375 475.796875 868.6875 476.335938 868.570312 476.636719 C 868.476562 476.882812 868.039062 477.460938 867.617188 477.898438 C 867.378906 478.148438 867.152344 478.265625 866.933594 478.253906 C 866.800781 478.246094 866.671875 478.195312 866.546875 478.097656 " fill-opacity="1" fill-rule="nonzero"/></g></g></g></g><g clip-path="url(#1081f7055d)"><g clip-path="url(#9b1d46ec6d)"><g clip-path="url(#be5922119d)"><g clip-path="url(#b40b533571)"><path fill="#252237" d="M 865.089844 475.21875 Z M 865.292969 474.910156 C 865.386719 475.035156 865.476562 475.203125 865.390625 475.355469 C 865.390625 475.355469 865.390625 475.355469 865.386719 475.355469 C 865.230469 475.625 864.980469 476.085938 864.9375 476.246094 C 864.871094 476.488281 864.941406 476.644531 865.171875 476.75 C 865.46875 476.886719 865.546875 476.820312 865.734375 476.65625 C 865.949219 476.476562 866.410156 475.847656 866.441406 475.722656 C 866.460938 475.613281 866.425781 475.164062 866.117188 474.996094 C 865.820312 474.832031 865.597656 474.855469 865.449219 474.871094 C 865.425781 474.871094 865.40625 474.871094 865.390625 474.875 C 865.363281 474.875 865.328125 474.890625 865.292969 474.910156 Z M 864.835938 476.929688 C 864.605469 476.746094 864.53125 476.480469 864.617188 476.160156 C 864.683594 475.921875 865.015625 475.339844 865.089844 475.210938 C 865.074219 475.160156 864.996094 475.066406 864.921875 475 C 864.886719 474.96875 864.863281 474.921875 864.867188 474.871094 C 864.867188 474.820312 864.890625 474.777344 864.929688 474.746094 C 864.96875 474.714844 865.179688 474.558594 865.367188 474.542969 C 865.378906 474.542969 865.398438 474.539062 865.414062 474.539062 C 865.582031 474.523438 865.890625 474.492188 866.277344 474.703125 C 866.734375 474.953125 866.804688 475.546875 866.769531 475.777344 C 866.730469 476.011719 866.164062 476.730469 865.953125 476.910156 C 865.707031 477.117188 865.484375 477.261719 865.03125 477.050781 C 864.957031 477.015625 864.890625 476.976562 864.835938 476.929688 " fill-opacity="1" fill-rule="nonzero"/></g></g></g></g><g clip-path="url(#40341db3d4)"><g clip-path="url(#20ca01b9bb)"><g clip-path="url(#4d54d5a7b7)"><g clip-path="url(#48eb99a58a)"><path fill="#252237" d="M 864.128906 474.152344 Z M 864.128906 474.152344 L 864.125 474.152344 Z M 864.15625 474.097656 C 864.105469 474.320312 864.097656 474.785156 864.179688 474.839844 C 864.371094 474.96875 864.515625 475.027344 864.789062 474.71875 C 865.0625 474.40625 864.878906 474.070312 864.789062 473.941406 C 864.730469 473.859375 864.53125 473.804688 864.378906 473.859375 C 864.296875 473.890625 864.214844 473.933594 864.148438 473.976562 C 864.164062 474.011719 864.167969 474.054688 864.15625 474.097656 Z M 863.972656 475.097656 C 863.882812 475.027344 863.828125 474.910156 863.804688 474.746094 C 863.777344 474.589844 863.785156 474.304688 863.816406 474.117188 L 863.773438 474.082031 C 863.734375 474.050781 863.710938 474 863.714844 473.953125 C 863.714844 473.898438 863.738281 473.851562 863.777344 473.820312 C 863.789062 473.8125 864.023438 473.632812 864.265625 473.546875 C 864.550781 473.445312 864.90625 473.535156 865.058594 473.75 C 865.28125 474.0625 865.390625 474.539062 865.039062 474.9375 C 864.609375 475.425781 864.257812 475.289062 863.996094 475.117188 C 863.988281 475.109375 863.980469 475.105469 863.972656 475.097656 " fill-opacity="1" fill-rule="nonzero"/></g></g></g></g><g clip-path="url(#effc7dee39)"><g clip-path="url(#9b86f55941)"><g clip-path="url(#637e98ac05)"><g clip-path="url(#8a5d4021b8)"><path fill="#252237" d="M 821.699219 449.792969 C 821.65625 449.761719 821.632812 449.710938 821.636719 449.652344 C 821.640625 449.5625 821.71875 449.492188 821.8125 449.5 C 822.171875 449.519531 822.5 449.496094 822.789062 449.425781 C 824.035156 449.132812 825.679688 446.90625 825.695312 446.882812 C 825.75 446.8125 825.851562 446.796875 825.925781 446.847656 C 826 446.902344 826.019531 447.007812 825.964844 447.082031 C 825.894531 447.175781 824.230469 449.425781 822.867188 449.75 C 822.546875 449.828125 822.183594 449.855469 821.792969 449.832031 C 821.753906 449.828125 821.722656 449.816406 821.699219 449.792969 " fill-opacity="1" fill-rule="nonzero"/></g></g></g></g><g clip-path="url(#db609ce76b)"><g clip-path="url(#29713fb3ac)"><g clip-path="url(#085252348d)"><g clip-path="url(#1673e7dacf)"><path fill="#252237" d="M 818.816406 448.242188 C 818.800781 448.226562 818.785156 448.210938 818.777344 448.195312 C 818.398438 447.550781 817.75 446.386719 817.613281 445.847656 C 817.597656 445.796875 817.585938 445.738281 817.566406 445.679688 C 817.375 444.976562 817.085938 443.910156 818.03125 442.875 C 818.714844 442.125 819.550781 441.152344 819.988281 440.636719 C 820.140625 440.457031 820.328125 440.3125 820.546875 440.203125 C 820.703125 440.125 820.976562 439.964844 821.390625 439.628906 C 821.84375 439.265625 822.457031 438.875 822.789062 439.089844 C 822.902344 439.160156 823.015625 439.328125 822.921875 439.699219 C 822.730469 440.449219 822.179688 441.335938 821.789062 441.691406 C 821.417969 442.023438 820.785156 442.921875 820.78125 442.929688 C 820.726562 443.003906 820.625 443.023438 820.546875 442.972656 C 820.472656 442.917969 820.453125 442.8125 820.507812 442.738281 C 820.535156 442.703125 821.167969 441.800781 821.5625 441.445312 C 821.910156 441.128906 822.425781 440.300781 822.597656 439.613281 C 822.644531 439.4375 822.617188 439.375 822.609375 439.367188 C 822.546875 439.328125 822.203125 439.402344 821.601562 439.890625 C 821.246094 440.171875 820.945312 440.378906 820.695312 440.503906 C 820.515625 440.589844 820.363281 440.710938 820.242188 440.851562 C 819.804688 441.367188 818.964844 442.347656 818.277344 443.101562 C 817.453125 443.996094 817.703125 444.921875 817.886719 445.59375 C 817.902344 445.652344 817.917969 445.710938 817.933594 445.765625 C 818.070312 446.300781 818.832031 447.632812 819.0625 448.027344 C 819.109375 448.105469 819.082031 448.207031 819.003906 448.253906 C 818.941406 448.289062 818.867188 448.28125 818.816406 448.242188 " fill-opacity="1" fill-rule="nonzero"/></g></g></g></g><g clip-path="url(#acf349a0e2)"><g clip-path="url(#12cbdb7333)"><g clip-path="url(#937ca8b639)"><g clip-path="url(#db297c351f)"><path fill="#252237" d="M 822.929688 443.207031 C 822.804688 443.105469 822.726562 442.996094 822.695312 442.867188 C 822.632812 442.652344 822.699219 442.40625 822.886719 442.121094 C 823.226562 441.613281 823.691406 441.058594 823.910156 440.914062 C 824.175781 440.734375 824.757812 440.855469 825.082031 441.28125 C 825.3125 441.582031 825.394531 442.234375 825.375 442.605469 C 825.371094 442.695312 825.292969 442.765625 825.203125 442.761719 C 825.109375 442.757812 825.039062 442.675781 825.042969 442.585938 C 825.058594 442.226562 824.972656 441.683594 824.816406 441.480469 C 824.570312 441.15625 824.175781 441.136719 824.09375 441.1875 C 823.953125 441.285156 823.523438 441.765625 823.164062 442.304688 C 823.03125 442.503906 822.980469 442.664062 823.011719 442.777344 C 823.039062 442.878906 823.140625 442.96875 823.316406 443.058594 C 823.5 443.144531 824.023438 442.773438 824.332031 442.46875 C 824.355469 442.445312 824.386719 442.429688 824.417969 442.425781 C 824.511719 442.40625 824.652344 442.425781 825.042969 442.691406 C 825.117188 442.742188 825.136719 442.847656 825.085938 442.921875 C 825.035156 442.996094 824.933594 443.015625 824.855469 442.964844 C 824.675781 442.84375 824.5625 442.789062 824.503906 442.765625 C 824.265625 442.988281 823.597656 443.5625 823.171875 443.355469 C 823.078125 443.308594 822.996094 443.261719 822.929688 443.207031 " fill-opacity="1" fill-rule="nonzero"/></g></g></g></g><g clip-path="url(#3c0d7ccfff)"><g clip-path="url(#1185713b5f)"><g clip-path="url(#872f4cefdb)"><g clip-path="url(#b3af882e5e)"><path fill="#252237" d="M 821.660156 441.855469 C 821.617188 441.820312 821.578125 441.785156 821.546875 441.742188 C 821.488281 441.667969 821.5 441.566406 821.574219 441.507812 C 821.644531 441.449219 821.75 441.464844 821.804688 441.535156 C 821.894531 441.648438 822.09375 441.738281 822.339844 441.695312 C 822.609375 441.640625 822.929688 441.363281 823.03125 441.257812 C 823.082031 441.207031 823.160156 441.195312 823.222656 441.222656 C 823.300781 440.980469 823.371094 440.5625 823.042969 440.324219 C 822.933594 440.242188 822.816406 440.183594 822.691406 440.152344 C 822.601562 440.128906 822.550781 440.039062 822.574219 439.949219 C 822.597656 439.859375 822.6875 439.808594 822.777344 439.828125 C 822.941406 439.875 823.09375 439.949219 823.242188 440.054688 C 823.800781 440.464844 823.617188 441.222656 823.441406 441.5625 C 823.417969 441.609375 823.378906 441.640625 823.328125 441.652344 C 823.28125 441.664062 823.230469 441.648438 823.191406 441.617188 L 823.160156 441.59375 C 823.003906 441.730469 822.703125 441.960938 822.402344 442.019531 C 822.125 442.070312 821.851562 442.007812 821.660156 441.855469 " fill-opacity="1" fill-rule="nonzero"/></g></g></g></g><g clip-path="url(#ac6bb4127c)"><g clip-path="url(#005ac1070e)"><g clip-path="url(#d3ce562ce8)"><g clip-path="url(#567990d679)"><path fill="#252237" d="M 827.292969 444.703125 Z M 827.292969 444.703125 Z M 827.410156 444.035156 C 827.394531 444.023438 827.382812 444.015625 827.371094 444.011719 C 827.222656 443.949219 826.855469 443.847656 826.613281 444.179688 C 826.371094 444.515625 826.460938 444.640625 826.628906 444.800781 C 826.703125 444.871094 827.160156 444.75 827.339844 444.664062 C 827.378906 444.640625 827.429688 444.636719 827.476562 444.652344 C 827.503906 444.574219 827.527344 444.480469 827.539062 444.390625 C 827.558594 444.25 827.488281 444.097656 827.410156 444.035156 Z M 826.421875 445.058594 C 826.414062 445.054688 826.40625 445.046875 826.398438 445.039062 C 826.171875 444.824219 825.960938 444.511719 826.34375 443.984375 C 826.65625 443.554688 827.144531 443.558594 827.496094 443.707031 C 827.742188 443.804688 827.910156 444.132812 827.871094 444.433594 C 827.835938 444.6875 827.714844 444.957031 827.710938 444.96875 C 827.6875 445.015625 827.652344 445.046875 827.605469 445.0625 C 827.558594 445.074219 827.507812 445.066406 827.464844 445.039062 L 827.40625 444.996094 C 827.230469 445.066406 826.960938 445.136719 826.800781 445.148438 C 826.636719 445.160156 826.507812 445.132812 826.421875 445.058594 " fill-opacity="1" fill-rule="nonzero"/></g></g></g></g><g clip-path="url(#18eb7d7dea)"><g clip-path="url(#ec7dcff7e9)"><g clip-path="url(#83758c47bf)"><g clip-path="url(#f4793c3cbe)"><path fill="#252237" d="M 825.988281 442.886719 C 825.746094 442.695312 825.363281 442.753906 825.269531 442.789062 C 825.15625 442.847656 824.644531 443.4375 824.511719 443.683594 C 824.398438 443.902344 824.347656 443.996094 824.546875 444.253906 C 824.699219 444.453125 824.867188 444.488281 825.089844 444.371094 C 825.253906 444.285156 825.699219 443.882812 825.859375 443.738281 C 825.859375 443.734375 825.859375 443.734375 825.859375 443.734375 C 825.988281 443.617188 826.171875 443.664062 826.316406 443.734375 C 826.328125 443.691406 826.332031 443.652344 826.328125 443.628906 C 826.328125 443.613281 826.324219 443.59375 826.320312 443.570312 C 826.300781 443.421875 826.273438 443.199219 826.050781 442.945312 C 826.03125 442.925781 826.011719 442.90625 825.988281 442.886719 Z M 824.445312 444.621094 C 824.386719 444.578125 824.335938 444.523438 824.285156 444.457031 C 823.980469 444.058594 824.070312 443.8125 824.21875 443.527344 C 824.347656 443.28125 824.925781 442.570312 825.144531 442.480469 C 825.363281 442.394531 825.957031 442.335938 826.300781 442.726562 C 826.59375 443.058594 826.628906 443.367188 826.648438 443.53125 C 826.652344 443.546875 826.65625 443.566406 826.65625 443.578125 C 826.683594 443.765625 826.578125 444.003906 826.554688 444.050781 C 826.535156 444.09375 826.496094 444.125 826.445312 444.140625 C 826.398438 444.152344 826.347656 444.140625 826.308594 444.113281 C 826.226562 444.054688 826.117188 444 826.066406 443.996094 C 825.957031 444.097656 825.460938 444.550781 825.246094 444.667969 C 824.953125 444.820312 824.671875 444.804688 824.445312 444.621094 " fill-opacity="1" fill-rule="nonzero"/></g></g></g></g><g clip-path="url(#d665a2d435)"><g clip-path="url(#29acfea47e)"><g clip-path="url(#76ff696adc)"><g clip-path="url(#0da9e28c49)"><path fill="#252237" d="M 811.597656 496.460938 C 811.261719 496.863281 810.3125 498.097656 810.289062 499.292969 C 810.269531 500.101562 811.105469 501.105469 812.078125 501.4375 C 812.457031 501.566406 813.160156 501.6875 813.644531 501.042969 C 814.167969 500.339844 813.570312 499.113281 812.972656 498.207031 C 812.457031 497.421875 811.851562 496.742188 811.597656 496.460938 Z M 811.046875 501.230469 C 810.421875 500.734375 809.941406 500.003906 809.957031 499.285156 C 809.988281 497.714844 811.410156 496.167969 811.472656 496.101562 C 811.503906 496.066406 811.546875 496.046875 811.59375 496.046875 C 811.636719 496.046875 811.679688 496.066406 811.714844 496.097656 C 811.851562 496.242188 815.109375 499.632812 813.910156 501.242188 C 813.464844 501.835938 812.757812 502.023438 811.96875 501.753906 C 811.652344 501.644531 811.335938 501.460938 811.046875 501.230469 " fill-opacity="1" fill-rule="nonzero"/></g></g></g></g><g clip-path="url(#750bfbc171)"><g clip-path="url(#83de64f8ae)"><g clip-path="url(#c3fc9adf4a)"><g clip-path="url(#13d3228095)"><path fill="#252237" d="M 801.152344 512.804688 C 800.800781 513.085938 799.800781 513.949219 798.773438 515.238281 C 797.804688 516.449219 797.742188 517.679688 798.597656 518.894531 C 799.128906 519.652344 800.175781 520.21875 801.519531 519.523438 C 802.679688 518.925781 804.164062 517.648438 804.585938 517.277344 Z M 798.84375 519.640625 C 798.648438 519.484375 798.472656 519.296875 798.324219 519.085938 C 797.671875 518.15625 797.175781 516.699219 798.511719 515.027344 C 799.808594 513.410156 801.027344 512.472656 801.078125 512.433594 C 801.152344 512.378906 801.253906 512.394531 801.3125 512.464844 L 804.941406 517.199219 C 804.996094 517.265625 804.988281 517.363281 804.921875 517.421875 C 804.847656 517.488281 803.066406 519.101562 801.671875 519.816406 C 800.996094 520.167969 800.308594 520.257812 799.6875 520.082031 C 799.386719 519.996094 799.097656 519.84375 798.84375 519.640625 " fill-opacity="1" fill-rule="nonzero"/></g></g></g></g></svg>