<?xml version="1.0" standalone="no"?>
<!DOCTYPE svg PUBLIC "-//W3C//DTD SVG 20010904//EN"
 "http://www.w3.org/TR/2001/REC-SVG-20010904/DTD/svg10.dtd">
<svg version="1.0" xmlns="http://www.w3.org/2000/svg"
 width="833.000000pt" height="833.000000pt" viewBox="0 0 833.000000 833.000000"
 preserveAspectRatio="xMidYMid meet">

<g transform="translate(0.000000,833.000000) scale(0.100000,-0.100000)"
fill="#1f0971" stroke="none">
<path d="M170 4170 l0 -1130 775 0 775 0 0 235 0 235 -470 0 -470 0 0 895 0
895 -305 0 -305 0 0 -1130z"/>
<path d="M4200 4170 l0 -1130 300 0 300 0 0 405 0 405 192 -2 192 -3 235 -402
236 -402 338 -1 c185 0 337 2 337 5 0 3 -121 206 -270 451 -148 246 -270 448
-270 450 0 1 24 10 53 19 220 72 388 252 433 465 20 94 13 251 -16 363 -30
121 -75 202 -155 283 -114 115 -252 178 -459 209 -85 12 -222 15 -775 15
l-671 0 0 -1130z m1294 693 c45 -13 72 -28 107 -62 62 -60 83 -129 77 -247 -6
-115 -42 -186 -117 -231 -29 -17 -75 -37 -103 -42 -28 -7 -177 -11 -353 -11
l-305 0 0 305 0 305 317 0 c267 0 326 -3 377 -17z"/>
<path d="M2715 4764 c-264 -40 -416 -114 -570 -275 -151 -158 -225 -359 -225
-611 0 -371 160 -644 466 -794 138 -68 257 -95 444 -101 323 -11 562 67 751
245 176 165 252 362 252 652 0 199 -35 344 -114 476 -79 131 -244 271 -391
331 -136 55 -240 75 -418 78 -91 2 -178 1 -195 -1z m251 -375 c228 -42 355
-243 340 -539 -9 -187 -55 -312 -144 -390 -75 -66 -136 -85 -282 -85 -115 0
-130 2 -182 27 -105 49 -185 143 -224 265 -9 28 -18 102 -21 178 -8 206 29
332 127 434 56 58 110 88 194 106 77 17 117 18 192 4z"/>
<path d="M7128 4755 c-173 -27 -327 -99 -404 -188 -62 -73 -114 -208 -114
-297 l0 -30 255 0 254 0 11 39 c15 55 69 132 110 156 49 28 226 35 298 11 86
-29 112 -71 119 -202 5 -75 3 -94 -8 -98 -8 -3 -87 -14 -177 -26 -546 -68
-807 -194 -903 -438 -20 -49 -23 -75 -23 -187 0 -108 3 -138 20 -181 70 -172
222 -276 452 -311 138 -20 260 -8 409 42 123 41 179 72 227 126 20 21 38 39
40 39 2 0 6 -26 9 -57 3 -32 10 -70 16 -85 l11 -28 240 0 c132 0 240 1 240 3
0 1 -8 27 -17 57 -14 48 -17 139 -23 670 -7 677 -6 665 -71 763 -103 156 -368
239 -753 236 -72 -1 -170 -7 -218 -14z m525 -1033 c-11 -130 -31 -188 -87
-256 -109 -134 -389 -155 -488 -37 -30 35 -44 101 -33 151 10 44 68 106 128
137 64 32 469 143 481 132 6 -6 6 -53 -1 -127z"/>
</g>
</svg>
